<svg xmlns="http://www.w3.org/2000/svg" viewBox="0 0 128.31 137.37"><defs><style>.cls-1{fill:#2699fb;}.cls-2{fill:#bce0fd;}.cls-3{fill:#0f5b93;}</style></defs><title>Asset 1</title><g id="Layer_2" data-name="Layer 2"><g id="Layer_1-2" data-name="Layer 1"><polygon class="cls-1" points="112.59 113.98 89.8 101.58 105.52 70.08 128.31 82.48 112.59 113.98"/><polygon class="cls-2" points="81.24 118.39 58.45 105.99 89.8 101.58 112.59 113.98 81.24 118.39"/><polygon class="cls-3" points="128.31 82.48 105.52 70.08 89.91 42.98 112.7 55.38 128.31 82.48"/><polygon class="cls-3" points="53.77 137.37 30.98 124.97 0 71.22 22.79 83.63 53.77 137.37"/><polygon class="cls-1" points="22.79 83.63 0 71.22 31.2 8.74 53.99 21.14 22.79 83.63"/><polygon class="cls-2" points="53.99 21.14 31.2 8.74 93.37 0 116.17 12.4 53.99 21.14"/></g></g></svg>