<svg xmlns="http://www.w3.org/2000/svg" viewBox="0 0 67.91 58.82"><defs><style>.cls-1{fill:#2699fb;}.cls-2{fill:#0f5b93;}.cls-3{fill:#bce0fd;}</style></defs><title>Asset 4</title><g id="Layer_2" data-name="Layer 2"><g id="Layer_2-2" data-name="Layer 2"><polygon class="cls-1" points="50.94 44.11 46.69 51.46 46.69 51.46 42.45 44.11 38.2 36.76 42.45 29.41 46.69 36.76 46.69 36.76 50.94 44.11"/><polygon class="cls-2" points="38.2 36.76 12.73 36.76 8.49 29.41 33.96 29.41 38.2 36.76"/><polygon class="cls-2" points="46.69 51.46 38.2 51.46 33.96 44.11 33.96 44.11 29.71 36.76 38.2 36.76 42.45 44.11 46.69 51.46"/><polygon class="cls-2" points="50.94 58.82 16.98 58.82 21.22 51.46 46.69 51.46 50.94 58.82"/><polygon class="cls-1" points="50.94 14.7 46.69 22.06 42.45 29.41 38.2 36.76 33.96 29.41 33.96 29.41 38.2 22.06 42.45 14.7 46.69 7.35 46.69 7.35 50.94 14.7"/><polygon class="cls-3" points="33.96 29.41 33.96 29.41 0 29.41 4.25 22.06 29.71 22.06 33.96 29.41"/><polygon class="cls-3" points="50.94 0 46.69 7.35 21.22 7.35 16.98 0 50.94 0"/><polygon class="cls-1" points="59.43 29.41 59.43 29.41 55.18 22.06 50.94 14.7 46.69 7.35 50.94 0 55.18 7.35 59.42 14.7 59.43 14.71 63.67 22.06 67.91 29.41 59.43 29.41"/><polygon class="cls-1" points="67.91 29.41 63.67 36.76 59.43 44.11 59.42 44.11 55.18 51.46 50.94 58.82 46.69 51.46 50.94 44.11 55.18 36.76 59.42 29.41 67.91 29.41"/><polygon class="cls-3" points="21.22 7.35 16.98 14.7 12.73 22.06 4.25 22.06 8.49 14.71 8.49 14.7 12.73 7.35 12.74 7.35 16.98 0 21.22 7.35"/><polygon class="cls-3" points="46.69 7.35 42.45 14.7 38.2 22.06 33.96 29.41 29.71 22.06 33.96 14.71 33.96 14.7 38.2 7.35 46.69 7.35"/><polygon class="cls-2" points="21.22 51.46 16.98 58.82 12.73 51.46 8.49 44.11 4.25 36.76 0 29.41 8.49 29.41 12.73 36.76 12.74 36.76 16.98 44.11 21.22 51.46"/><polygon class="cls-1" points="21.2 7.31 16.98 14.7 12.73 22.06 16.74 22.06 20.98 14.7 23.25 10.84 21.2 7.31"/><polygon class="cls-2" points="21.2 7.31 29.71 7.35 38.2 7.35 36.2 10.82 27.71 10.82 23.25 10.84 21.2 7.31"/><polygon class="cls-3" points="21.2 51.55 29.71 51.51 38.2 51.51 36.2 48.04 27.71 48.04 23.23 48.02 21.2 51.55"/><polygon class="cls-1" points="21.2 51.55 16.98 44.16 12.73 36.81 16.74 36.81 20.98 44.16 23.23 48.02 21.2 51.55"/><polygon class="cls-2" points="59.48 29.36 55.18 22.01 50.94 14.66 48.94 18.13 53.18 25.48 55.4 29.37 59.48 29.36"/><polygon class="cls-3" points="59.48 29.36 55.18 36.71 50.94 44.07 48.94 40.6 53.18 33.24 55.4 29.37 59.48 29.36"/></g></g></svg>