<svg xmlns="http://www.w3.org/2000/svg" viewBox="0 0 54.71 56.93"><defs><style>.cls-1{fill:#0f5b93;}.cls-2{fill:#bce0fd;}.cls-3{fill:#2699fb;}</style></defs><title>Asset 2</title><g id="Layer_2" data-name="Layer 2"><g id="Layer_2-2" data-name="Layer 2"><polygon class="cls-1" points="38.29 9.47 38.29 9.47 27.35 9.47 21.89 0 32.82 0 38.29 9.47"/><polygon class="cls-2" points="27.35 9.47 21.89 18.94 16.42 9.47 16.42 9.47 21.89 0 27.35 9.47"/><polygon class="cls-3" points="38.29 9.47 32.82 18.94 21.89 18.94 27.35 9.47 38.29 9.47"/><polygon class="cls-1" points="54.71 18.85 54.71 18.85 43.77 18.85 38.3 9.38 49.24 9.38 54.71 18.85"/><polygon class="cls-3" points="43.77 18.85 38.3 28.32 32.83 18.85 32.83 18.85 38.3 9.38 43.77 18.85"/><polygon class="cls-2" points="54.7 18.85 49.24 28.32 38.3 28.32 43.77 18.85 54.7 18.85"/><polygon class="cls-1" points="21.87 18.85 21.87 18.85 10.94 18.85 5.47 9.38 16.41 9.38 21.87 18.85"/><polygon class="cls-2" points="10.94 18.85 5.47 28.32 0 18.85 0 18.85 5.47 9.38 10.94 18.85"/><polygon class="cls-3" points="21.87 18.85 16.41 28.32 5.47 28.32 10.94 18.85 21.87 18.85"/><polygon class="cls-1" points="38.29 47.46 38.29 47.46 27.35 47.46 21.89 37.99 32.82 37.99 38.29 47.46"/><polygon class="cls-3" points="27.35 47.46 21.89 56.93 16.42 47.46 16.42 47.46 21.89 37.99 27.35 47.46"/><polygon class="cls-2" points="38.29 47.46 32.82 56.93 21.89 56.93 27.35 47.46 38.29 47.46"/><polygon class="cls-1" points="54.71 37.85 54.71 37.85 43.77 37.85 38.3 28.38 49.24 28.38 54.71 37.85"/><polygon class="cls-3" points="43.77 37.85 38.3 47.32 32.83 37.85 32.83 37.85 38.3 28.38 43.77 37.85"/><polygon class="cls-2" points="54.7 37.85 49.24 47.32 38.3 47.32 43.77 37.85 54.7 37.85"/><polygon class="cls-1" points="21.87 37.85 21.87 37.85 10.94 37.85 5.47 28.38 16.41 28.38 21.87 37.85"/><polygon class="cls-2" points="10.94 37.85 5.47 47.32 0 37.85 0 37.85 5.47 28.38 10.94 37.85"/><polygon class="cls-3" points="21.87 37.85 16.41 47.32 5.47 47.32 10.94 37.85 21.87 37.85"/></g></g></svg>