<svg xmlns="http://www.w3.org/2000/svg" viewBox="0 0 67.97 58.86"><defs><style>.cls-1{fill:#bce0fd;}.cls-2{fill:#0f5b93;}.cls-3{fill:#2699fb;}</style></defs><title>Asset 3</title><g id="Layer_2" data-name="Layer 2"><g id="Layer_2-2" data-name="Layer 2"><polygon class="cls-1" points="50.98 19.62 28.32 19.62 22.66 29.43 22.66 29.43 11.33 29.43 16.99 19.62 17 19.62 22.66 9.81 45.32 9.81 50.98 19.62"/><polygon class="cls-2" points="39.65 39.24 33.99 49.05 33.99 49.05 22.66 49.05 22.66 49.05 16.99 39.24 11.33 29.43 22.66 29.43 28.32 39.24 28.32 39.24 39.65 39.24"/><polygon class="cls-1" points="67.97 29.43 62.31 39.24 62.31 39.24 56.64 49.05 56.64 49.05 56.64 49.05 50.98 58.86 16.99 58.86 11.33 49.05 45.32 49.05 45.32 49.05 56.64 29.43 67.97 29.43"/><polygon class="cls-2" points="67.97 29.43 67.97 29.43 56.64 29.43 56.64 29.43 50.98 19.62 45.32 9.81 22.66 9.81 16.99 0 50.98 0 56.64 9.81 62.31 19.62 62.31 19.62 67.97 29.43"/><polygon class="cls-3" points="56.64 29.43 56.64 29.43 56.64 29.43 45.32 49.05 45.32 49.05 33.99 49.05 33.99 49.05 39.65 39.24 45.31 29.43 39.65 19.62 50.98 19.62 56.64 29.43"/><polygon class="cls-3" points="16.99 39.24 22.66 49.05 22.66 49.05 11.33 49.05 11.33 49.05 5.67 39.24 0 29.43 0 29.43 0 29.43 5.67 19.62 11.33 9.81 16.99 0 22.66 9.81 17 19.62 16.99 19.62 11.33 29.43 16.99 39.24"/></g></g></svg>